<?xml version="1.0" encoding="utf-8"?>
<!-- Generator: Adobe Illustrator 17.0.0, SVG Export Plug-In . SVG Version: 6.00 Build 0)  -->
<!DOCTYPE svg PUBLIC "-//W3C//DTD SVG 1.1//EN" "http://www.w3.org/Graphics/SVG/1.1/DTD/svg11.dtd">
<svg version="1.1" id="Layer_1" xmlns="http://www.w3.org/2000/svg" xmlns:xlink="http://www.w3.org/1999/xlink" x="0px" y="0px"
	 width="23.76px" height="23.761px" viewBox="0 0 23.76 23.761" enable-background="new 0 0 23.76 23.761" xml:space="preserve">
<g>
	<path fill="#FFFFFF" d="M21.924,13.808c-0.956-0.895-2.224-1.439-3.53-1.528c0.004-3.901-0.001-7.803,0.002-11.704
		c-0.003-0.138,0.016-0.293-0.071-0.41c-0.077-0.117-0.22-0.171-0.356-0.164c-3.802,0-7.604,0-11.406,0
		C6.447-0.005,6.329,0.03,6.246,0.114C4.259,1.976,2.273,3.839,0.286,5.7C0.184,5.801,0.05,5.89,0.016,6.037
		C-0.008,6.18,0.004,6.325,0.002,6.468c0,5.62,0,11.241,0,16.861c-0.028,0.239,0.189,0.456,0.428,0.429
		c5.861,0,11.723,0.001,17.584,0c1.37,0.003,2.732-0.506,3.762-1.409c1.208-1.039,1.95-2.597,1.981-4.191
		C23.81,16.533,23.12,14.907,21.924,13.808z M6.134,1.269c0,1.493,0,2.986,0,4.479c-1.592,0-3.184,0-4.777,0
		C2.948,4.254,4.541,2.763,6.134,1.269z M0.769,22.992c0-5.493,0-10.985,0-16.477c1.916-0.001,3.833,0.003,5.749-0.002
		C6.742,6.52,6.923,6.304,6.9,6.085c0-1.773,0-3.546,0-5.318c3.577,0,7.153,0,10.729,0c0,3.838,0,7.676,0,11.515
		c-1.385,0.091-2.727,0.703-3.7,1.693c-0.93,0.931-1.523,2.191-1.64,3.503c-0.113,1.209,0.168,2.452,0.8,3.49
		c0.503,0.836,1.224,1.535,2.066,2.024C10.36,22.993,5.564,22.992,0.769,22.992z M22.933,18.782c-0.212,1.41-1.072,2.7-2.282,3.451
		c-0.867,0.546-1.905,0.811-2.927,0.749c-1.048-0.057-2.073-0.462-2.88-1.132c-0.7-0.577-1.24-1.348-1.537-2.206
		c-0.396-1.131-0.364-2.406,0.093-3.515c0.659-1.645,2.253-2.869,4.016-3.065c1.014-0.122,2.065,0.073,2.963,0.563
		c0.911,0.492,1.661,1.275,2.113,2.207C22.937,16.741,23.09,17.786,22.933,18.782z"/>
	<path fill="#FFFFFF" d="M16.318,10.275c0.116-0.078,0.169-0.22,0.162-0.356c0-2.525,0-5.051,0-7.575
		c0.023-0.217-0.157-0.431-0.378-0.424c-2.525-0.006-5.05,0-7.574-0.003c-0.075,0.002-0.151,0-0.223,0.023
		C8.137,1.994,8.036,2.171,8.05,2.344c0,2.429,0,4.858,0,7.286c0.002,0.142-0.01,0.285,0.012,0.425
		c0.04,0.185,0.23,0.307,0.415,0.291c2.475,0.001,4.95-0.001,7.425,0.001C16.042,10.344,16.199,10.365,16.318,10.275z M13.031,2.683
		c0,1.038,0,2.076,0,3.114c-0.194-0.125-0.38-0.262-0.577-0.38c-0.124-0.077-0.288-0.067-0.406,0.016
		c-0.185,0.119-0.365,0.245-0.549,0.365c-0.001-1.038,0-2.077,0-3.116C12.009,2.683,12.52,2.683,13.031,2.683z M15.713,9.581
		c-2.299,0-4.598,0-6.898,0c0-2.299,0-4.598,0-6.898c0.638,0,1.277,0,1.916,0c0,1.261,0,2.523,0,3.784
		c-0.01,0.16,0.071,0.332,0.225,0.395c0.132,0.061,0.289,0.034,0.404-0.051c0.301-0.201,0.604-0.4,0.904-0.602
		c0.322,0.209,0.636,0.431,0.96,0.636c0.236,0.153,0.579-0.048,0.57-0.326c0.005-1.279,0-2.558,0.002-3.837c0.638,0,1.277,0,1.916,0
		C15.713,4.982,15.713,7.281,15.713,9.581z"/>
	<path fill="#FFFFFF" d="M1.918,12.646c3.321,0,6.642,0,9.963,0c0-0.256,0-0.511,0-0.766c-3.321,0-6.642,0-9.963,0
		C1.918,12.135,1.918,12.391,1.918,12.646z"/>
	<path fill="#FFFFFF" d="M7.666,13.412c-1.916,0-3.832,0-5.748,0c0,0.255,0,0.511,0,0.766c1.916,0,3.832,0,5.748,0
		C7.666,13.923,7.666,13.668,7.666,13.412z"/>
	<path fill="#FFFFFF" d="M19.847,14.216c-0.721-0.352-1.544-0.486-2.339-0.39c-1.525,0.169-2.899,1.248-3.434,2.685
		c-0.353,0.919-0.367,1.963-0.04,2.892c0.317,0.907,0.955,1.698,1.775,2.198c0.766,0.476,1.69,0.692,2.588,0.607
		c0.825-0.072,1.624-0.399,2.265-0.923c0.656-0.529,1.148-1.26,1.389-2.069c0.272-0.903,0.228-1.897-0.126-2.771
		C21.54,15.478,20.783,14.668,19.847,14.216z M21.412,18.586c-0.135,0.814-0.578,1.57-1.216,2.091
		c-0.973,0.817-2.411,1.014-3.569,0.491c-0.762-0.333-1.394-0.952-1.743-1.707c-0.344-0.732-0.413-1.587-0.197-2.367
		c0.342-1.291,1.497-2.316,2.822-2.496c0.696-0.103,1.425,0.012,2.052,0.332c0.732,0.366,1.323,1.003,1.636,1.76
		C21.446,17.285,21.52,17.95,21.412,18.586z"/>
	<path fill="#FFFFFF" d="M7.666,14.945c-1.916,0-3.832,0-5.748,0c0,0.255,0,0.511,0,0.766c1.916,0,3.832,0,5.748,0
		C7.666,15.456,7.666,15.201,7.666,14.945z"/>
	<path fill="#FFFFFF" d="M18.396,15.328c-0.256,0-0.511,0-0.766,0c0,0.254,0,0.508,0,0.761c-0.244,0.013-0.489,0.082-0.685,0.233
		c-0.344,0.249-0.524,0.7-0.447,1.118c0.077,0.484,0.497,0.888,0.984,0.942c0.321,0.029,0.645-0.003,0.967,0.017
		c0.206,0.013,0.353,0.227,0.328,0.425c-0.014,0.187-0.188,0.342-0.376,0.335c-0.64,0.004-1.28,0-1.921,0.001
		c0,0.255,0,0.511,0,0.766c0.383,0,0.766,0,1.15,0c0,0.255,0,0.511,0,0.766c0.255,0,0.511,0,0.766,0c0-0.254,0-0.508,0-0.762
		c0.187-0.013,0.376-0.045,0.542-0.138c0.416-0.215,0.66-0.704,0.598-1.165c-0.046-0.427-0.36-0.808-0.767-0.941
		c-0.399-0.122-0.822-0.021-1.229-0.072c-0.185-0.04-0.318-0.233-0.289-0.42c0.02-0.184,0.191-0.337,0.378-0.332
		c0.639-0.005,1.278,0,1.917-0.002c0-0.256,0-0.511,0-0.766c-0.383,0-0.766,0-1.15,0C18.395,15.839,18.396,15.584,18.396,15.328z"/>
	<path fill="#FFFFFF" d="M1.918,17.244c2.81,0,5.62,0,8.43,0c0-0.256,0-0.511,0-0.766c-2.81,0-5.62,0-8.43,0
		C1.918,16.733,1.918,16.989,1.918,17.244z"/>
	<path fill="#FFFFFF" d="M1.918,18.777c1.916,0,3.832,0,5.748,0c0-0.256,0-0.511,0-0.766c-1.916,0-3.832,0-5.748,0
		C1.918,18.266,1.918,18.521,1.918,18.777z"/>
	<path fill="#FFFFFF" d="M1.918,20.31c1.916,0,3.832,0,5.748,0c0-0.256,0-0.511,0-0.766c-1.916,0-3.832,0-5.748,0
		C1.918,19.799,1.918,20.054,1.918,20.31z"/>
</g>
</svg>
