<?xml version="1.0" encoding="utf-8"?>
<!-- Generator: Adobe Illustrator 17.0.0, SVG Export Plug-In . SVG Version: 6.00 Build 0)  -->
<!DOCTYPE svg PUBLIC "-//W3C//DTD SVG 1.1//EN" "http://www.w3.org/Graphics/SVG/1.1/DTD/svg11.dtd">
<svg version="1.1" id="Layer_1" xmlns="http://www.w3.org/2000/svg" xmlns:xlink="http://www.w3.org/1999/xlink" x="0px" y="0px"
	 width="23.76px" height="26.417px" viewBox="0 0 23.76 26.417" enable-background="new 0 0 23.76 26.417" xml:space="preserve">
<path fill="#FFFFFF" d="M23.759,23.644c0-7.457,0-14.913,0-22.37c0.005-0.2-0.051-0.401-0.161-0.569
	C23.307,0.257,22.766,0.042,22.25,0H9.585C9.198,0.034,8.807,0.154,8.503,0.405c-0.247,0.2-0.43,0.5-0.429,0.824
	C8.071,1.623,8.078,2.017,8.071,2.411c-0.5,0.333-0.906,0.787-1.258,1.269C6.255,4.457,5.85,5.374,5.806,6.34
	c-0.006,0.544,0,1.087-0.002,1.631C5.798,8.194,5.734,8.41,5.683,8.626c-0.748,3.03-1.795,6.026-3.488,8.666
	c-0.217,0.354-0.448,0.7-0.657,1.059c-0.644,1.102-1.19,2.282-1.435,3.542c-0.16,0.836-0.158,1.732,0.19,2.522
	c0.326,0.76,0.939,1.403,1.706,1.723c0.66,0.272,1.403,0.302,2.098,0.166c0.864-0.171,1.691-0.609,2.256-1.294
	c0.449-0.539,0.694-1.238,0.69-1.939c0.001-4.801,0-9.602,0.001-14.403c0.343-0.001,0.687-0.001,1.031,0
	c0.001,5.094-0.001,10.189,0.001,15.283c0,0.349,0.211,0.665,0.485,0.866c0.334,0.252,0.755,0.352,1.167,0.368
	c-0.003,0.41,0,0.821-0.001,1.231h12.383c0-0.412-0.001-0.823,0-1.235c0.351-0.007,0.706-0.084,1.011-0.263
	c0.272-0.157,0.509-0.401,0.6-0.708C23.776,24.027,23.756,23.833,23.759,23.644z M5.804,22.54c-0.004,0.396,0.029,0.803-0.093,1.187
	c-0.159,0.558-0.583,1.022-1.111,1.257C3.906,25.3,3.08,25.271,2.391,24.959c-0.452-0.19-0.832-0.558-0.991-1.027
	c-0.257-0.746-0.181-1.564,0.018-2.314c0.348-1.279,1.032-2.428,1.745-3.533c1.106-1.719,1.966-3.587,2.643-5.513
	C5.8,15.895,5.805,19.218,5.804,22.54z M21.282,9.907c0.003,0.22-0.135,0.416-0.305,0.543c-0.267,0.2-0.607,0.282-0.937,0.282
	c-2.746,0-5.492,0-8.237,0c-0.341,0.001-0.695-0.084-0.967-0.298c-0.16-0.126-0.287-0.316-0.285-0.526c0-2.202,0-4.404,0-6.606
	c-0.002-0.199,0.111-0.381,0.26-0.506c0.231-0.195,0.533-0.289,0.831-0.313c2.784-0.013,5.569-0.001,8.352-0.006
	c0.345-0.006,0.704,0.073,0.984,0.284c0.17,0.128,0.307,0.322,0.304,0.542C21.283,5.503,21.283,7.705,21.282,9.907z"/>
</svg>
