<?xml version="1.0" encoding="UTF-8" standalone="no"?>
<svg xmlns:rdf="http://www.w3.org/1999/02/22-rdf-syntax-ns#" xmlns="http://www.w3.org/2000/svg" height="459.66pt" width="1750.8pt" version="1.1" xmlns:cc="http://creativecommons.org/ns#" xmlns:dc="http://purl.org/dc/elements/1.1/" viewBox="0 0 1750.802 459.6575">
<path d="m106.92 0c-35.86 4.0872-71.312 11.266-106.83 17.531-0.61144 153.13 2.1925 307.32 0.44125 460.72-0.07895 29.1 40.136 5.99 55.797 16.23 5.708 42.07 53.712 62.13 91.302 64.98 22.58-4.22 41.24 9.63 64.71 11.96 48.6 4.55 85.35-41.95 86.72-87.01 9.19 14.82 7.96 33.87 18.42 48.25 14.95 27.07 47.04 38.6 76.6 36.32 43.65 7.24 87.23-29.27 89.29-72.98 275.24 0.42 550.83 2.46 825.93 4.56 7.8 10.28 8.2 26.25 20.1 34.02 25.8 30.71 74.1 33.48 105.6 10.14 26.5 28.7 68.4 35.17 104.9 25.92 18.6-5.68 31.1-22.22 41.1-37.89 64.8-5.66 133.2-0.82 199.6-2.07 9.7-1.42 21.7-1.37 27.9 7.7 28.7 34.95 95.1 33.92 117-6.54 15.9 0.3 32 1.18 47.9-0.32 3.9-2.95-1.9-15.45 3.9-7.49 19.4 38.44 68.5 51.69 108.2 41.96 34.5-12.24 64.7-43.63 63.1-82.05 12-2.36 24.9-4.55 34.9-12.5 8.2-11.8 2.6-27.28 5-40.6-7.9-0.55-15.9 0.12-23.6-1.84-3.9-12.9-9.3-25.21-15.4-37.19 14.9-8.43 10.9-35.24 4.7-49.72-12.8-1.49-26-1.4-38.5 2.27-3.8-19.81-6.8-44.49-18.8-58.66 2.1-4.23 2.4-10.59-3.8-10.94-14.1 3.1-32.9-5.47-40.4 11.44-43.4-1.24-86.9-4.8-130-8.42-29.7-26.33-42.6-70.24-81.9-85.87-2.1-4.69 5.7-12.27-0.8-16.64-22.3-9.01-38.4 15.48-59.6 4.63 2.8-10.64-10.9-20.45-19.5-11.67-15.3 10.79-32.9 1.4-48.7-1.98-12-1.02-13.4 13.39-12.3 22.08-13.2 5.75-28.5 8.98-38.1 20.83-8.8 11.89-10.9 27.22-13.6 41.38 1 53.63 5.3 107.86-0.7 161.27-17.9 1.91-36-0.18-53.9 1.72 5.7-9.52 19.8-12.61 26.5-21.89-6.1-111.55-2-223.43-5.9-335.08 0.4-20.927-17.6-40.81-38.9-40.158-210-0.221-420.1-5.092-630.12-7.7497-279.35-3.8504-558.9-6.4519-838.26-8.6523zm-17.766 10.482c97.406 2.088 195.65 1.584 293.32 1.873 367.08 3.879 734.13 9.733 1101.2 15.061 37.1 1.449 75-2.097 111.6 5.148 4 9.035 9 18.356 8.7 28.516 2 107.41 4.7 214.76 3.3 322.12-3.9-0.95-14.5 4.34-11.3-5.33-2.8-100.82-2.3-201.74-3.5-302.6-0.1-13.254-2.4-27.676-15.2-34.688-280 1.319-560.6-4.991-840.94-7.375-212.85-2.482-425.83-4.541-638.7-8.836-6.997 0.814-10.982-8.047-8.506-13.889zm-16.199 3.582c2.465-0.037 4.737 0.585 4.424 3.416-17.914 8.732-42.731 9.166-59.992 7.565 13.661-7.006 34.184-6.777 50.592-10.422 1.023-0.1 3.059-0.529 4.976-0.559zm3.16 19.305c0.85 0.02 2.564 0.036 3.414 0.043-1.514 143.41 3.384 286.85-0.105 430.22-6.639 2.94-2.887-8.68-4.565-11.27 0.648-138.61-0.306-277.22-0.297-415.82-2.036-0.075-4.075 0.032-6.078 0.364-2.216 139.35 0.243 278.69-1.211 418.06-0.742 4.86 4.317 15.41-4.058 12.53-0.418-144.08 1.302-288.22-1.041-432.24 4.56-1.1 9.252-1.684 13.941-1.881zm13.891 1.197c493.26 4.405 986.09 12.581 1478.6 16.704 7.8 2.956 14.6 9.514 13.9 18.646 0 64.964 4 129.81 1.7 194.67-23.6-3.43-47.7-1.85-71.4-0.87-105.3 1.28-210.5-2.12-315.8-2.09-368.69-3.15-737.51-2.71-1106.1-3.86-1.626-73.51-3.245-151.47-0.894-223.2zm-42.762 2.602l5.969 0.652c-0.274 145.94 1.479 291.91-0.119 437.87-3.31 1.07-10.749 5.48-6.805-3.85-2.411-144.84-0.969-290.13 0.955-434.67zm-31.797 2.529c2.666 0.226 2.996 8.229 2.694 9.305-1.245 138.28-1.764 276.58-1.233 414.83l-6.047-0.54c0.571-139.89 0.717-279.78 0.188-419.64-0.168-2.199 2.289-3.002 3.834-3.888 0.199-0.059 0.387-0.08 0.564-0.065zm16.014 2.629c2.862-0.053 5.417 0.859 1.957 6.322-1.482 131.12-2.85 262.26-3.332 393.38-1.998 5.49 6.157 22.02-4.115 18.84-2.925-138.94-1.85-277.91-0.512-416.87 0.816-0.351 2.447-1.076 3.25-1.432 0.81-0.099 1.798-0.224 2.752-0.242zm1686 134.05c5.3 0.06 10.3 2.24 14.7 5.05-3.9 8.44-28.2-1.67-17-4.94 0.8-0.08 1.6-0.12 2.3-0.11zm57.4 13.18c28.6 2.96 60.1 4.43 84.3 22.63 15.5 15.5 24.5 35.95 38.9 52.29 3.9 10.46 11.4 19.79 22 23.57 47 1.76 94.1 4.84 141.1 8.32 17.4 10.62 20.4 33.65 20.3 52.31-36.7-2.67-75.9 7.99-102.6 34.38-17.4 20.05-28.4 44.86-35.2 70.29-54.5 2.81-109.6 2.9-164.3 1.64-6.8-14.46-5.8-38.38-24.8-42.47-3.4-53.14-2.1-106.45-3.5-159.65-0.4-13.5 1.2-28.49-5.4-40.67-7-4.25-5.4 8.7-8.9 10.79-4.5-1.66-3.8-13.6-10.7-10.43-4.6 2.73 0.4 13.74-6.5 13.33-3.7-4.25-3.6-15.09-10.9-13.49-2.1 4.02-3.4 8.39-5.8 12.29-2.9-4.97-3.6-13.97-10.9-13.86-6.6 2.79-2.6 18.4-11.1 16.75-0.5-5.28-4.3-11.19-3.3-16.21 27.3-22.03 64.4-19.47 97.3-21.81zm53.2 28.67c-17.5-0.07-37 4.32-52.5 0.81-5.6 10.35-0.3 23.11-1 34.3 1.6 9-4.8 21.15 4.4 27.55 34.4-0.13 69 0.92 103.3-0.55 4.3-16-10.9-29.18-16.8-42.99-8.1-15.51-21.9-19.05-37.4-19.12zm-164.3 6.83c4.8-0.21 6.8 5.34 5.3 9.77-0.3 58.76 0.8 117.52-0.5 176.28-4.7-2.41-7.1-7.19-5.8-12.57-1.1-57.72-4.3-115.82 0-173.35 0.4-0.07 0.7-0.11 1-0.13zm73.5 4.81c10.3 54.26 3.8 116.89 7 174.6 2.4 5.97-3.2 8.78-8.5 5.93-3.6-52.33-0.4-104.97-2.8-157.39-0.4-7.65-1.5-17.01 4.3-23.14zm108.9 4.84c2.6 0.03 5.1 0.13 7.6 0.34 5.1 10.59 15.7 22.27 16.6 33.42-26.3 3.73-55 6.55-81.7 3.12-4.8-10.18-2.5-24.38-2.3-35.93 12.1-0.36 24.3-0.15 36.4-0.7 7.7 0.2 15.7-0.33 23.4-0.25zm-138.2 0.13c16.7 0.52 12.7 25.45 9.1 39.75-10.5 1.94-23.9 2.85-34.7-0.49-3.1-13.83-5.2-41.76 17-37.89 3.3-1.03 6.2-1.45 8.6-1.37zm-1617.7 30.71c238.55 3.25 477.38-1.21 715.94 3.66 181.38-0.56 362.78 0.89 544.18 1.78 78 2.64 156.1-0.75 234.1 2.83 1.5 36.5 2.2 73.98-0.9 110.01-36.6 1.68-75.5 0.88-112.9 0.59-42.7 17.34-49.3 67.83-73.9 100.58-268.5 1.53-537.34-5.76-805.95-3.88-28.76-2.6-57.8 0.41-86.42-1.91-8.01-28.47-11.75-67-40.6-83.58-97.02-3.46-194.14 1.61-291.33-0.83-9.15 0.35-20.11-1.56-28.12 4.19-19.78 20.03-32.98 46.28-38.68 73.74-1.59 5.26-8.475 3.83-12.555 2.97-5.466-69.9-1.916-140.15-2.868-210.15zm1989.3 17.18c2.3 0.02 3.6 0.74 1.8 3.36-2.5 1.81-19.6-0.68-11.4-2.46 1.9 0.22 6.6-0.92 9.6-0.9zm-376.9 4.25c4-0.1 2.4 8 3.3 10.46 1.1 38.14-2.7 76.46-0.2 114.49-4.4 0.54-9.6-0.82-7-7.32-1.2-38.64-1.8-77.46 0.1-116.08 1.6-1.07 2.8-1.53 3.8-1.55zm18.9 0.68c8 28.52-0.8 69.16 2.5 101.97-2.7 5.56 5.5 23.03-5 20.93-4.2-39.21-3-78.78-3.8-118.16-0.6-4.02 3.2-4.75 6.3-4.74zm-37 0.21c1.8 0.04 3.3 0.69 2.9 3.25 2 39.54 0.1 79.24-1.7 118.75 0.8 4.78-6.2 4.47-5.1-0.21-1.8-40.44 0-81.03-1.6-121.48 1.3 0.18 3.6-0.36 5.5-0.31zm115.8 6.11c-3.1 0.02-6.2 0.53-8.5 0.79-6.9 0.97-14.5 0.92-20.1 5.59 6.5 14.8 28.9 9.8 38.4 0.98 0.1-6.09-4.7-7.4-9.8-7.36zm281 2.38c21 0.39 25.4 27.73 25.8 44.78 5.4 14.16-20.6 11.96-17.7 0.01 3.3-16.67-10.7-29.73-12.6-44.5 1.6-0.22 3-0.32 4.5-0.29zm-144.5 14.56c-7.5-0.35-6.2 7.56 0 8.64 39.9 2.42 80.2-2.98 119.9 1.88 4.7-1.49 5.2-10.77-1.2-9.52-39.5 0.73-79.1 0.15-118.7-1zm202.7 35.68c12.5-0.36 17.2 17.37 10.8 27.8-15 12.07-24.2-12.88-34.8-20.01 5.7-2.96 11.7-5.7 18.1-6.45 2.1-0.87 4.1-1.29 5.9-1.34zm-69.7 7.92c42.1 0.18 78.3 34.89 86.2 75.52 0.9 8.42 7.3 20.91-2.8 25.97-6.7-22.62-20.1-44.2-40.5-56.74-25.3-21.37-61.1-8.73-90-1.95-22.1 10.6-40.3 30-48.2 53.38-3.8 21.05-9.4 41.71-11.5 63.08-0.5 9.26-10.1 9.46-16.4 6.47-6.4-44.5 6.7-93.78 34.6-129.77 21.4-23.56 53.8-33.1 84.5-35.87 1.4-0.07 2.8-0.1 4.1-0.09zm4.1 62.45c44.8 0.27 79.1 52.43 59 93.96-14.8 44.22-78 58.65-111.4 26.24-36.6-28.25-31-95.84 13.5-113.38 9.9-6.87 21.5-3.76 32.2-6.48 2.2-0.24 4.5-0.36 6.7-0.34zm-523.5 0.15c10.2 0.06 20.4 2.29 30.6 1.77-1.7 7.98-4.4 15.74-7.5 23.26-7.1-9.71-26.5-18.95-27.5-24.91 1.5-0.1 2.9-0.13 4.4-0.12zm-1145.2 1.62c49.43-0.4 88.08 58.29 62.67 102.74-15.94 36.31-64.31 49.12-97.7 29.95-27.11-16.34-40.77-49.53-36.3-80.43 9.34-30.29 39.72-52.23 71.33-52.26zm-189.96 0.44c22.28-0.21 44.28 10.28 58.08 27.86 29.59 33.43 13.18 91.8-26.85 108.76-42.52 22.68-102.73-12.42-99.21-61.74-5.62-35.91 26.46-69.98 61.06-74.47 2.31-0.25 4.61-0.39 6.92-0.41zm1413.4 2.22c28.4 0.09 56.8 2.01 85.1 0.06 13.9 4.57 28.6-1.58 42.1 3.35 19.7 27.66 12.2 63.95 13.2 95.89-51.8 2.98-105.1-1.38-157.3 1.04 1.1-30.02 4.5-67.78-2.8-100.04 6.6-0.24 13.2-0.32 19.7-0.3zm-115.6 1.24c27.6-0.61 55.1 17.98 64.1 44.3 10.8 24.29 2.7 52.07-11.4 73.11-18.9 23.19-52.9 29.08-80.2 19.37-38.5-15.53-62.2-69.88-34.9-104.93 12.7-21.71 39.4-27.89 62.4-31.85zm555.2 8.8c-2.5-0.01-5 0.22-7.5 0.71-31.1 2.76-50.2 42.35-31.8 67.91 16.5 31.96 71.1 26.25 81.8-7.68 12.1-28.5-13.3-60.91-42.5-60.94zm-555.7 13.77c-2.7 0-5.5 0.26-8.2 0.81-36.2 1.22-49.7 54.7-23.2 76.89 24.3 24.45 74.5 7.61 77.8-26.87 2.1-26.52-20.2-50.87-46.4-50.83zm-1104.7 5.54c-1.6-0.05-3.23 0.03-4.87 0.22-22.07 1.64-43.38 17.97-46.65 40.79 3.07 17.98 6.75 38.6 25.98 46.25 26.16 18.48 68.41-3.25 65.17-36.21 3.67-23.34-15.57-50.39-39.63-51.05zm-189.14 2.63c-14.45 0.03-29.54 5.99-37.7 18.39-16.26 21.25-7.13 55.93 17.21 66.68 24.01 11.97 56.91-2.56 63.9-28.45 8.03-27.55-15.09-56.92-43.41-56.62zm1852.3 8.64c10 0.21 18 11.28 14.3 21.03-3.7 11.96-22.8 13.79-28.6 2.57-5.5-9.04 0.6-22.2 11.2-23.31 1.1-0.22 2.1-0.32 3.1-0.29zm-556.2 11.21c15.1 0.74 21.2 26.04 3.9 30.54-22.2 8.24-30.2-29.7-7.1-30.35 1.1-0.18 2.1-0.24 3.2-0.19zm357.6 3.13c22.4-0.04 44.7 2.23 67 1.99-1.5 8.66 3 25.66-10.8 23.54-49.4-1.03-98.9 2.78-148.1-1.88-1.4-7.15-2-14.47-2.2-21.73 26.2-1.58 52.5 0.38 78.7-1.46 5.1-0.32 10.3-0.45 15.4-0.46zm-1654.9 6.26c9.66-0.34 18.83 9.46 15.36 19.38-1.72 11.79-18.11 15.51-26.05 7.6-7.77-7.93-5.31-23.78 6.57-26.19 1.36-0.49 2.75-0.74 4.12-0.79zm190.18 0.45c16.53 0.11 20.65 28.67 2.27 30.95-20.29 6.14-27.14-28.87-5.74-30.57 1.21-0.26 2.37-0.38 3.47-0.38zm1373.9 30.25c51.1 0.31 102.2 0.79 153.3 1.16 0.9 1.66 3.5 5.59-0.2 5.22-50.4 4.74-101.1 0.93-151.7 1.57-3.9 1.09-4.2-7.83-1.4-7.95z" transform="matrix(0.8 0 0 0.8 0 -.000024414)"/>
</svg>
